<?xml version="1.0" encoding="utf-8"?>
<!-- Generator: Adobe Illustrator 22.0.0, SVG Export Plug-In . SVG Version: 6.00 Build 0)  -->
<svg version="1.1" id="flower_1" xmlns="http://www.w3.org/2000/svg" xmlns:xlink="http://www.w3.org/1999/xlink" x="0px" y="0px"
	 viewBox="0 0 256 254.5" style="enable-background:new 0 0 256 254.5;" xml:space="preserve">
<style type="text/css">
	.flower1-st0{fill:#F5D5D1;}
	.flower1-st1{fill:#FDE3E0;}
	.flower1-st2{fill:none;}
	.flower1-st3{fill:#FBA81F;}
	.flower1-st4{fill:#EE7923;}
	.flower1-st5{fill:#F7931E;}
	.flower1-st6{fill:#FFCA1C;}
</style>
<g>
	<g>
		
			<ellipse transform="matrix(0.3746 -0.9272 0.9272 0.3746 -57.4702 110.1422)" class="flower1-st0" cx="52.9" cy="97.7" rx="16.8" ry="45.3"/>
		
			<ellipse transform="matrix(0.9205 -0.3907 0.3907 0.9205 -58.2644 33.2432)" class="flower1-st0" cx="52.6" cy="159.8" rx="45.3" ry="16.8"/>
		
			<ellipse transform="matrix(0.3746 -0.9272 0.9272 0.3746 -129.7942 218.0986)" class="flower1-st0" cx="96.8" cy="205.3" rx="45.3" ry="16.8"/>
		
			<ellipse transform="matrix(0.9205 -0.3907 0.3907 0.9205 -67.0558 79.2848)" class="flower1-st0" cx="161.3" cy="204.4" rx="16.8" ry="46.8"/>
		
			<ellipse transform="matrix(0.3746 -0.9272 0.9272 0.3746 -19.296 289.7377)" class="flower1-st0" cx="205.1" cy="159.2" rx="16.8" ry="47"/>
		
			<ellipse transform="matrix(0.9205 -0.3907 0.3907 0.9205 -21.5481 87.8336)" class="flower1-st0" cx="205.1" cy="96.9" rx="46.8" ry="16.8"/>
		
			<ellipse transform="matrix(0.3746 -0.9272 0.9272 0.3746 52.2037 181.0352)" class="flower1-st0" cx="160.3" cy="51.8" rx="45.3" ry="16.8"/>
		
			<ellipse transform="matrix(0.9205 -0.3907 0.3907 0.9205 -12.6495 41.9518)" class="flower1-st0" cx="96.8" cy="52.1" rx="16.8" ry="45.3"/>
	</g>
	<g>
		<ellipse class="flower1-st1" cx="128" cy="45.3" rx="16.8" ry="45.3"/>
		
			<ellipse transform="matrix(0.7071 -0.7071 0.7071 0.7071 -28.7223 69.2177)" class="flower1-st1" cx="69.2" cy="69.3" rx="16.8" ry="45.3"/>
		<ellipse class="flower1-st1" cx="45.3" cy="128.7" rx="45.3" ry="16.8"/>
		
			<ellipse transform="matrix(0.7071 -0.7071 0.7071 0.7071 -112.3262 103.9202)" class="flower1-st1" cx="69.3" cy="187.5" rx="45.3" ry="16.8"/>
		<ellipse class="flower1-st1" cx="128" cy="209.2" rx="16.8" ry="45.3"/>
		
			<ellipse transform="matrix(0.7071 -0.7071 0.7071 0.7071 -77.5934 186.897)" class="flower1-st1" cx="186.8" cy="187.1" rx="16.8" ry="45.3"/>
		<ellipse class="flower1-st1" cx="210.7" cy="127.6" rx="45.3" ry="16.8"/>
		
			<ellipse transform="matrix(0.7071 -0.7071 0.7071 0.7071 5.2321 151.8721)" class="flower1-st1" cx="185.9" cy="69.6" rx="46.4" ry="16.8"/>
	</g>
	<polygon class="flower1-st2" points="185.1,163.4 185.1,163.4 185.1,163.4 	"/>
	<path class="flower1-st3" d="M194.5,173c-0.6-0.5-1.3-1-1.9-1.5C193.2,171.9,193.8,172.5,194.5,173z"/>
	<path class="flower1-st3" d="M199,176.1c-1.5-0.9-3-1.9-4.4-3C196,174.2,197.5,175.2,199,176.1z"/>
	<path class="flower1-st3" d="M206,179.5c-0.6-0.2-1.3-0.5-1.9-0.8C204.8,179,205.4,179.3,206,179.5z"/>
	<path class="flower1-st3" d="M203.5,178.5c-0.6-0.3-1.2-0.6-1.8-0.9C202.3,177.9,202.9,178.2,203.5,178.5z"/>
	<path class="flower1-st3" d="M192.3,171.2c-0.6-0.5-1.2-1.1-1.8-1.7C191.1,170.1,191.7,170.7,192.3,171.2z"/>
	<path class="flower1-st3" d="M201.2,177.3c-0.7-0.4-1.4-0.8-2.1-1.2C199.8,176.5,200.5,176.9,201.2,177.3z"/>
	<path class="flower1-st3" d="M190.4,169.5c-1.9-1.9-3.7-3.9-5.3-6.1C186.7,165.6,188.5,167.6,190.4,169.5z"/>
	<path class="flower1-st4" d="M201.7,177.6c-0.2-0.1-0.3-0.2-0.5-0.2C201.4,177.4,201.6,177.5,201.7,177.6z"/>
	<path class="flower1-st4" d="M204.1,178.7c-0.2-0.1-0.4-0.2-0.6-0.3C203.7,178.5,203.9,178.6,204.1,178.7z"/>
	<path class="flower1-st4" d="M206.6,179.7c-0.2-0.1-0.4-0.1-0.5-0.2C206.2,179.6,206.4,179.6,206.6,179.7z"/>
	<path class="flower1-st4" d="M199.1,176.1C199.1,176.1,199,176.1,199.1,176.1C199,176.1,199.1,176.1,199.1,176.1z"/>
	<polygon class="flower1-st4" points="185.1,163.4 185.1,163.4 185.1,163.4 	"/>
	<path class="flower1-st4" d="M192.6,171.4c-0.1-0.1-0.1-0.1-0.2-0.2C192.4,171.3,192.5,171.4,192.6,171.4z"/>
	<path class="flower1-st4" d="M190.5,169.6C190.5,169.5,190.5,169.5,190.5,169.6C190.5,169.5,190.5,169.5,190.5,169.6z"/>
	<path class="flower1-st4" d="M194.6,173.1c0,0-0.1-0.1-0.1-0.1C194.5,173,194.5,173,194.6,173.1z"/>
	<g>
		<path class="flower1-st3" d="M170,107.6c0.3,0.6,0.6,1.2,0.9,1.9C170.6,108.8,170.3,108.2,170,107.6z"/>
		<path class="flower1-st3" d="M174.2,121c0.1,0.5,0.1,1.1,0.2,1.6C174.3,122.1,174.3,121.5,174.2,121z"/>
		<path class="flower1-st3" d="M174.7,125.8c0,0.8,0.1,1.6,0.1,2.4C174.7,127.4,174.7,126.6,174.7,125.8z"/>
		<path class="flower1-st3" d="M173.8,118.6c0.1,0.5,0.2,1.1,0.3,1.6C174,119.7,173.9,119.2,173.8,118.6z"/>
		<path class="flower1-st3" d="M172.6,114.1c0.2,0.6,0.3,1.2,0.5,1.7C172.9,115.2,172.8,114.7,172.6,114.1z"/>
		<path class="flower1-st3" d="M171,109.7c0.3,0.6,0.5,1.2,0.7,1.8C171.5,110.9,171.2,110.3,171,109.7z"/>
		<path class="flower1-st3" d="M171.8,111.9c0.2,0.6,0.4,1.2,0.6,1.8C172.2,113.1,172,112.5,171.8,111.9z"/>
		<path class="flower1-st3" d="M173.2,116.3c0.1,0.6,0.3,1.1,0.4,1.7C173.5,117.5,173.4,116.9,173.2,116.3z"/>
		<path class="flower1-st3" d="M174.5,123.4c0.1,0.6,0.1,1.1,0.1,1.7C174.6,124.5,174.6,123.9,174.5,123.4z"/>
		<path class="flower1-st4" d="M173.1,115.8c0,0.2,0.1,0.3,0.1,0.5C173.2,116.2,173.1,116,173.1,115.8z"/>
		<path class="flower1-st4" d="M173.6,118c0,0.2,0.1,0.4,0.1,0.6C173.7,118.4,173.7,118.2,173.6,118z"/>
		<path class="flower1-st4" d="M174.4,122.6c0,0.2,0.1,0.5,0.1,0.7C174.5,123.1,174.4,122.9,174.4,122.6z"/>
		<path class="flower1-st4" d="M174.1,120.3c0,0.2,0.1,0.5,0.1,0.7C174.2,120.8,174.1,120.5,174.1,120.3z"/>
		<path class="flower1-st4" d="M172.4,113.7c0,0.1,0.1,0.3,0.1,0.4C172.5,113.9,172.5,113.8,172.4,113.7z"/>
		<path class="flower1-st4" d="M169.9,107.4c0,0.1,0.1,0.1,0.1,0.2C169.9,107.5,169.9,107.5,169.9,107.4z"/>
		<path class="flower1-st4" d="M174.6,125.1c0,0.2,0,0.5,0.1,0.7C174.7,125.5,174.6,125.3,174.6,125.1z"/>
		<path class="flower1-st4" d="M171.7,111.5c0,0.1,0.1,0.2,0.1,0.3C171.8,111.8,171.7,111.7,171.7,111.5z"/>
		<path class="flower1-st4" d="M170.8,109.5c0,0.1,0.1,0.2,0.1,0.2C170.9,109.6,170.9,109.5,170.8,109.5z"/>
		<g>
			<polygon class="flower1-st2" points="160.6,94.5 160.6,94.5 160.6,94.5 			"/>
			<path class="flower1-st3" d="M170,107.5c0.3,0.6,0.6,1.2,0.9,1.9C170.6,108.7,170.3,108.1,170,107.5z"/>
			<path class="flower1-st3" d="M121.7,174.4c-0.6-0.1-1.2-0.2-1.7-0.3C120.6,174.2,121.1,174.3,121.7,174.4z"/>
			<path class="flower1-st3" d="M166.5,101.5c0.4,0.6,0.8,1.2,1.2,1.9C167.3,102.7,166.9,102.1,166.5,101.5z"/>
			<path class="flower1-st3" d="M167.7,103.4c0.4,0.6,0.8,1.2,1.1,1.9C168.5,104.7,168.1,104,167.7,103.4z"/>
			<path class="flower1-st3" d="M116.6,173.4c-1.7-0.4-3.4-0.9-5-1.6C113.2,172.4,114.9,173,116.6,173.4z"/>
			<path class="flower1-st3" d="M171.8,111.7c0.2,0.6,0.4,1.2,0.6,1.8C172.2,112.9,172,112.3,171.8,111.7z"/>
			<path class="flower1-st3" d="M119.1,173.9c-0.6-0.1-1.3-0.3-1.9-0.4C117.8,173.7,118.5,173.8,119.1,173.9z"/>
			<path class="flower1-st3" d="M171,109.6c0.3,0.6,0.5,1.2,0.7,1.8C171.5,110.8,171.2,110.2,171,109.6z"/>
			<path class="flower1-st3" d="M168.9,105.4c0.3,0.6,0.7,1.2,1,1.9C169.6,106.7,169.2,106,168.9,105.4z"/>
			<path class="flower1-st3" d="M160.6,94.5c2.2,2.1,4.2,4.5,5.9,7C164.7,99,162.7,96.6,160.6,94.5z"/>
			<path class="flower1-st3" d="M174.7,125.6c0,0.8,0.1,1.6,0.1,2.4C174.7,127.2,174.7,126.4,174.7,125.6z"/>
			<path class="flower1-st3" d="M161.1,161.1c-2.1,2.1-4.4,4-6.9,5.7C156.6,165.1,158.9,163.2,161.1,161.1z"/>
			<path class="flower1-st3" d="M137.4,173.9c-1.5,0.3-3.1,0.5-4.6,0.7C134.4,174.4,135.9,174.2,137.4,173.9z"/>
			<path class="flower1-st3" d="M174.5,123.2c0.1,0.6,0.1,1.1,0.1,1.7C174.6,124.4,174.6,123.8,174.5,123.2z"/>
			<path class="flower1-st3" d="M172.6,114c0.2,0.6,0.3,1.2,0.5,1.7C172.9,115.1,172.8,114.5,172.6,114z"/>
			<path class="flower1-st3" d="M141.9,172.7c-1.5,0.5-3,0.8-4.5,1.2C138.9,173.5,140.4,173.2,141.9,172.7z"/>
			<path class="flower1-st3" d="M168,152.3c-0.8,1.3-1.6,2.5-2.5,3.7C166.4,154.8,167.2,153.6,168,152.3z"/>
			<path class="flower1-st5" d="M90.2,155.5L90.2,155.5c8.4,8.2,19.9,13.2,32.6,13.2c25.8,0,46.7-20.9,46.7-46.7c0-10.3-3.3-19.7-8.9-27.4
				c0,0,0,0,0,0C160.6,94.5,177.6,182.5,90.2,155.5z"/>
			<path class="flower1-st3" d="M128,174.8c-0.9,0-1.8,0-2.7-0.1C126.2,174.8,127.1,174.8,128,174.8z"/>
			<path class="flower1-st3" d="M124.5,174.7c-0.6,0-1.2-0.1-1.8-0.2C123.3,174.6,123.9,174.6,124.5,174.7z"/>
			<path class="flower1-st3" d="M173.8,118.5c0.1,0.5,0.2,1.1,0.3,1.7C174,119.6,173.9,119.1,173.8,118.5z"/>
			<path class="flower1-st3" d="M173.2,116.2c0.1,0.6,0.3,1.1,0.4,1.7C173.5,117.3,173.4,116.8,173.2,116.2z"/>
			<path class="flower1-st3" d="M174.2,120.8c0.1,0.5,0.1,1.1,0.2,1.6C174.3,121.9,174.3,121.4,174.2,120.8z"/>
			<path class="flower1-st3" d="M152.2,168c-1.9,1.2-3.9,2.2-6,3.1C148.3,170.2,150.3,169.2,152.2,168z"/>
			<path class="flower1-st4" d="M120,174.1c-0.3-0.1-0.6-0.1-0.9-0.2C119.4,174,119.7,174.1,120,174.1z"/>
			<path class="flower1-st4" d="M122.7,174.5c-0.3,0-0.6-0.1-0.9-0.1C122,174.4,122.3,174.5,122.7,174.5z"/>
			<path class="flower1-st4" d="M117.2,173.5c-0.2-0.1-0.4-0.1-0.6-0.1C116.8,173.4,117,173.5,117.2,173.5z"/>
			<path class="flower1-st4" d="M125.3,174.7c-0.3,0-0.6,0-0.8-0.1C124.8,174.7,125,174.7,125.3,174.7z"/>
			<path class="flower1-st4" d="M174.1,120.2c0,0.2,0.1,0.5,0.1,0.7C174.2,120.6,174.1,120.4,174.1,120.2z"/>
			<path class="flower1-st4" d="M173.6,117.9c0,0.2,0.1,0.4,0.1,0.6C173.7,118.3,173.7,118.1,173.6,117.9z"/>
			<path class="flower1-st4" d="M173.1,115.7c0,0.2,0.1,0.3,0.1,0.5C173.2,116,173.1,115.9,173.1,115.7z"/>
			<path class="flower1-st4" d="M172.4,113.5c0,0.1,0.1,0.3,0.1,0.4C172.5,113.8,172.5,113.7,172.4,113.5z"/>
			<path class="flower1-st4" d="M171.7,111.4c0,0.1,0.1,0.2,0.1,0.3C171.8,111.6,171.7,111.5,171.7,111.4z"/>
			<path class="flower1-st4" d="M174.6,124.9c0,0.2,0,0.5,0.1,0.7C174.7,125.4,174.6,125.2,174.6,124.9z"/>
			<polygon class="flower1-st4" points="160.6,94.5 160.6,94.5 160.6,94.5 			"/>
			<path class="flower1-st4" d="M174.4,122.5c0,0.2,0.1,0.5,0.1,0.7C174.5,123,174.4,122.7,174.4,122.5z"/>
			<path class="flower1-st4" d="M166.5,101.5C166.5,101.5,166.5,101.5,166.5,101.5C166.5,101.5,166.5,101.5,166.5,101.5z"/>
			<path class="flower1-st4" d="M168.8,105.3c0,0,0,0.1,0.1,0.1C168.9,105.4,168.9,105.3,168.8,105.3z"/>
			<path class="flower1-st4" d="M169.9,107.3c0,0.1,0.1,0.1,0.1,0.2C169.9,107.4,169.9,107.4,169.9,107.3z"/>
			<path class="flower1-st4" d="M170.8,109.3c0,0.1,0.1,0.2,0.1,0.2C170.9,109.5,170.9,109.4,170.8,109.3z"/>
			<path class="flower1-st4" d="M167.7,103.4C167.7,103.4,167.7,103.4,167.7,103.4C167.7,103.4,167.7,103.4,167.7,103.4z"/>
			<path class="flower1-st4" d="M174.7,125.6c0-0.2,0-0.5-0.1-0.7c0-0.6-0.1-1.1-0.1-1.7c0-0.2-0.1-0.5-0.1-0.7c-0.1-0.5-0.1-1.1-0.2-1.6
				c0-0.2-0.1-0.5-0.1-0.7c-0.1-0.6-0.2-1.1-0.3-1.7c0-0.2-0.1-0.4-0.1-0.6c-0.1-0.6-0.3-1.1-0.4-1.7c0-0.2-0.1-0.3-0.1-0.5
				c-0.2-0.6-0.3-1.2-0.5-1.7c0-0.1-0.1-0.3-0.1-0.4c-0.2-0.6-0.4-1.2-0.6-1.8c0-0.1-0.1-0.2-0.1-0.3c-0.2-0.6-0.5-1.2-0.7-1.8
				c0-0.1-0.1-0.2-0.1-0.2c-0.3-0.6-0.6-1.2-0.9-1.9c0-0.1-0.1-0.1-0.1-0.2c-0.3-0.6-0.6-1.3-1-1.9c0,0,0-0.1-0.1-0.1
				c-0.4-0.6-0.7-1.3-1.1-1.9c0,0,0,0,0,0c-0.4-0.6-0.8-1.3-1.2-1.9c0,0,0,0,0,0c-1.7-2.5-3.7-4.8-5.9-7c0,0,0,0,0,0
				c5.6,7.7,8.9,17.2,8.9,27.4c0,25.8-20.9,46.7-46.7,46.7c-12.7,0-24.1-5-32.6-13.2c0,0,0,0,0,0c1.6,2.2,3.4,4.2,5.3,6.1
				c0,0,0.1,0.1,0.1,0.1c0.6,0.6,1.2,1.1,1.8,1.7c0.1,0.1,0.1,0.1,0.2,0.2c0.6,0.5,1.3,1,1.9,1.5c0,0,0.1,0.1,0.1,0.1
				c1.4,1.1,2.9,2.1,4.4,3c0,0,0,0,0.1,0c0.7,0.4,1.4,0.8,2.1,1.2c0.2,0.1,0.3,0.2,0.5,0.2c0.6,0.3,1.2,0.6,1.8,0.9
				c0.2,0.1,0.4,0.2,0.6,0.3c0.6,0.3,1.2,0.5,1.9,0.8c0.2,0.1,0.4,0.1,0.5,0.2c1.6,0.6,3.3,1.1,5,1.6c0.2,0.1,0.4,0.1,0.6,0.1
				c0.6,0.1,1.3,0.3,1.9,0.4c0.3,0.1,0.6,0.1,0.9,0.2c0.6,0.1,1.2,0.2,1.7,0.3c0.3,0,0.6,0.1,0.9,0.1c0.6,0.1,1.2,0.1,1.8,0.2
				c0.3,0,0.6,0,0.8,0.1c0.9,0.1,1.8,0.1,2.7,0.1c1.6,0,3.2-0.1,4.8-0.2c1.6-0.2,3.1-0.4,4.6-0.7c1.5-0.3,3-0.7,4.5-1.2
				c1.5-0.5,2.9-1,4.3-1.6c2.1-0.9,4.1-1.9,6-3.1c0.6-0.4,1.3-0.8,1.9-1.2c2.5-1.7,4.8-3.6,6.9-5.7c1.6-1.6,3.1-3.3,4.4-5.1
				c0.9-1.2,1.7-2.4,2.5-3.7c4.3-7.1,6.8-15.4,6.8-24.2C174.7,127.2,174.7,126.4,174.7,125.6z"/>
			<path class="flower1-st3" d="M160.6,94.5c-8.4-8.2-19.9-13.2-32.6-13.2c-25.8,0-46.7,20.9-46.7,46.7c0,10.3,3.3,19.7,8.9,27.4
				C177.6,182.5,160.6,94.5,160.6,94.5z"/>
		</g>
		<g>
			<path class="flower1-st6" d="M91.1,147.4c-1,0-1.9-0.6-2.3-1.5c-0.1-0.3-11.8-32.8,11.7-49.8c23.1-16.7,47.3-7.1,55.4,0.2
				c1,0.9,1.1,2.4,0.2,3.4c-0.9,1-2.4,1.1-3.4,0.2c-6.8-6.1-28.8-14.6-49.2,0.2c-20.3,14.7-10.1,43.7-10,44c0.5,1.3-0.1,2.7-1.4,3.2
				C91.7,147.4,91.4,147.4,91.1,147.4z"/>
		</g>
		<g>
			<circle class="flower1-st6" cx="95.7" cy="152" r="2.1"/>
		</g>
	</g>
</g>
</svg>
