<svg id="flower_4" data-name="Layer 1" xmlns="http://www.w3.org/2000/svg" viewBox="0 0 124 123.26"><defs><style>.flower4-cls-1{fill:#d0cfe1;}.flower4-cls-2{fill:#e6e5f3;}.flower4-cls-3{fill:none;}.flower4-cls-4{fill:#fba81f;}.flower4-cls-5{fill:#ee7923;}.flower4-cls-6{fill:#f7931e;}.flower4-cls-7{fill:#ffca1c;}</style></defs><title>svg4</title><ellipse class="flower4-cls-1" cx="25.63" cy="47.31" rx="8.14" ry="21.92" transform="translate(-27.84 53.35) rotate(-68)"/><ellipse class="flower4-cls-1" cx="25.46" cy="77.41" rx="21.92" ry="8.14" transform="translate(-28.22 16.1) rotate(-23)"/><ellipse class="flower4-cls-1" cx="46.88" cy="99.42" rx="21.92" ry="8.14" transform="translate(-62.87 105.64) rotate(-68)"/><ellipse class="flower4-cls-1" cx="78.14" cy="99.02" rx="8.14" ry="22.65" transform="translate(-32.48 38.4) rotate(-23)"/><ellipse class="flower4-cls-1" cx="99.36" cy="77.1" rx="8.14" ry="22.75" transform="translate(-9.35 140.34) rotate(-68)"/><ellipse class="flower4-cls-1" cx="99.34" cy="46.92" rx="22.65" ry="8.14" transform="translate(-10.44 42.54) rotate(-23)"/><ellipse class="flower4-cls-1" cx="77.65" cy="25.1" rx="21.92" ry="8.14" transform="translate(25.29 87.69) rotate(-68)"/><ellipse class="flower4-cls-1" cx="46.88" cy="25.22" rx="8.14" ry="21.92" transform="translate(-6.13 20.32) rotate(-23)"/><ellipse class="flower4-cls-2" cx="62" cy="21.92" rx="8.14" ry="21.92"/><ellipse class="flower4-cls-2" cx="33.51" cy="33.56" rx="8.14" ry="21.92" transform="translate(-13.91 33.53) rotate(-45)"/><ellipse class="flower4-cls-2" cx="21.92" cy="62.36" rx="21.92" ry="8.14"/><ellipse class="flower4-cls-2" cx="33.56" cy="90.84" rx="21.92" ry="8.14" transform="translate(-54.41 50.34) rotate(-45)"/><ellipse class="flower4-cls-2" cx="62" cy="101.34" rx="8.14" ry="21.92"/><ellipse class="flower4-cls-2" cx="90.49" cy="90.63" rx="8.14" ry="21.92" transform="translate(-37.58 90.53) rotate(-45)"/><ellipse class="flower4-cls-2" cx="102.08" cy="61.83" rx="21.92" ry="8.14"/><ellipse class="flower4-cls-2" cx="90.07" cy="33.72" rx="22.45" ry="8.14" transform="translate(2.53 73.56) rotate(-45)"/><polygon class="flower4-cls-3" points="89.68 79.13 89.68 79.13 89.68 79.13 89.68 79.13"/><path class="flower4-cls-4" d="M94.19,83.78c-.32-.24-.62-.49-.92-.75C93.57,83.29,93.87,83.54,94.19,83.78Z"/><path class="flower4-cls-4" d="M96.4,85.29a22.56,22.56,0,0,1-2.15-1.46A22.56,22.56,0,0,0,96.4,85.29Z"/><path class="flower4-cls-4" d="M99.79,87l-.91-.38Z"/><path class="flower4-cls-4" d="M98.59,86.44,97.71,86Z"/><path class="flower4-cls-4" d="M93.16,82.94c-.3-.26-.59-.53-.88-.81C92.57,82.41,92.86,82.68,93.16,82.94Z"/><path class="flower4-cls-4" d="M97.47,85.89c-.35-.19-.7-.38-1-.58C96.77,85.51,97.12,85.7,97.47,85.89Z"/><path class="flower4-cls-4" d="M92.23,82.09a22.49,22.49,0,0,1-2.55-3A22.49,22.49,0,0,0,92.23,82.09Z"/><path class="flower4-cls-5" d="M97.71,86l-.24-.12Z"/><path class="flower4-cls-5" d="M98.88,86.57l-.29-.13Z"/><path class="flower4-cls-5" d="M100.05,87.05l-.26-.1Z"/><path class="flower4-cls-5" d="M96.43,85.31l0,0Z"/><polygon class="flower4-cls-5" points="89.68 79.13 89.68 79.13 89.68 79.13 89.68 79.13"/><path class="flower4-cls-5" d="M93.27,83l-.11-.09Z"/><path class="flower4-cls-5" d="M92.28,82.13l0,0Z"/><path class="flower4-cls-5" d="M94.25,83.83l-.06,0Z"/><path class="flower4-cls-4" d="M82.33,52.12q.23.45.42.9Q82.56,52.57,82.33,52.12Z"/><path class="flower4-cls-4" d="M84.38,58.6c0,.26.07.53.1.79C84.45,59.13,84.42,58.86,84.38,58.6Z"/><path class="flower4-cls-4" d="M84.61,60.91c0,.39,0,.78,0,1.18C84.64,61.69,84.63,61.3,84.61,60.91Z"/><path class="flower4-cls-4" d="M84.17,57.47c.06.26.1.53.15.8C84.27,58,84.23,57.73,84.17,57.47Z"/><path class="flower4-cls-4" d="M83.59,55.26c.09.28.17.56.25.84C83.76,55.82,83.68,55.54,83.59,55.26Z"/><path class="flower4-cls-4" d="M82.8,53.14c.13.29.25.59.36.89C83.05,53.73,82.93,53.43,82.8,53.14Z"/><path class="flower4-cls-4" d="M83.23,54.19c.1.29.2.57.29.86C83.43,54.76,83.33,54.48,83.23,54.19Z"/><path class="flower4-cls-4" d="M83.91,56.36c.07.27.13.54.19.81C84,56.9,84,56.63,83.91,56.36Z"/><path class="flower4-cls-4" d="M84.52,59.75c0,.27,0,.55.07.83C84.57,60.3,84.55,60,84.52,59.75Z"/><path class="flower4-cls-5" d="M83.84,56.1c0,.09,0,.17.07.26C83.89,56.27,83.86,56.19,83.84,56.1Z"/><path class="flower4-cls-5" d="M84.1,57.17c0,.1.05.2.07.3C84.15,57.37,84.12,57.27,84.1,57.17Z"/><path class="flower4-cls-5" d="M84.48,59.39c0,.12,0,.24,0,.36C84.51,59.63,84.49,59.51,84.48,59.39Z"/><path class="flower4-cls-5" d="M84.32,58.27l.06.33Z"/><path class="flower4-cls-5" d="M83.52,55.05a1.72,1.72,0,0,1,.07.21A1.72,1.72,0,0,0,83.52,55.05Z"/><path class="flower4-cls-5" d="M82.29,52l0,.08Z"/><path class="flower4-cls-5" d="M84.59,60.58c0,.11,0,.22,0,.33C84.61,60.8,84.6,60.69,84.59,60.58Z"/><path class="flower4-cls-5" d="M83.16,54a1.11,1.11,0,0,0,.07.16A1.11,1.11,0,0,1,83.16,54Z"/><path class="flower4-cls-5" d="M82.75,53a.61.61,0,0,1,0,.12A.61.61,0,0,0,82.75,53Z"/><circle class="flower4-cls-4" cx="62" cy="62.03" r="22.65"/><polygon class="flower4-cls-3" points="77.77 45.78 77.77 45.78 77.77 45.78 77.77 45.78"/><path class="flower4-cls-4" d="M82.33,52.06q.23.44.42.9Q82.56,52.5,82.33,52.06Z"/><path class="flower4-cls-4" d="M59,84.46l-.84-.13Z"/><path class="flower4-cls-4" d="M80.63,49.16c.21.3.41.6.6.91C81,49.76,80.84,49.46,80.63,49.16Z"/><path class="flower4-cls-4" d="M81.25,50.1c.18.3.36.6.53.91C81.61,50.7,81.43,50.4,81.25,50.1Z"/><path class="flower4-cls-4" d="M56.46,84a21.73,21.73,0,0,1-2.41-.75A21.73,21.73,0,0,0,56.46,84Z"/><path class="flower4-cls-4" d="M83.23,54.13c.1.28.2.57.29.86C83.43,54.7,83.33,54.41,83.23,54.13Z"/><path class="flower4-cls-4" d="M57.69,84.25c-.31,0-.61-.12-.91-.19C57.08,84.13,57.38,84.2,57.69,84.25Z"/><path class="flower4-cls-4" d="M82.8,53.08c.13.29.25.59.36.88C83.05,53.67,82.93,53.37,82.8,53.08Z"/><path class="flower4-cls-4" d="M81.81,51.06c.17.3.33.61.48.91C82.14,51.67,82,51.36,81.81,51.06Z"/><path class="flower4-cls-4" d="M77.77,45.78a22.54,22.54,0,0,1,2.86,3.38A22.54,22.54,0,0,0,77.77,45.78Z"/><path class="flower4-cls-4" d="M84.61,60.85c0,.39,0,.78,0,1.18C84.64,61.63,84.63,61.24,84.61,60.85Z"/><path class="flower4-cls-4" d="M78,78a22.76,22.76,0,0,1-3.35,2.76A22.76,22.76,0,0,0,78,78Z"/><path class="flower4-cls-4" d="M66.56,84.21a20.48,20.48,0,0,1-2.24.34A20.48,20.48,0,0,0,66.56,84.21Z"/><path class="flower4-cls-4" d="M84.52,59.69c0,.27,0,.55.07.83C84.57,60.24,84.55,60,84.52,59.69Z"/><path class="flower4-cls-4" d="M83.59,55.2c.09.28.17.56.25.84C83.76,55.76,83.68,55.48,83.59,55.2Z"/><path class="flower4-cls-4" d="M68.73,83.65a22.25,22.25,0,0,1-2.17.56A22.25,22.25,0,0,0,68.73,83.65Z"/><path class="flower4-cls-4" d="M81.37,73.77c-.38.62-.79,1.22-1.22,1.8C80.58,75,81,74.39,81.37,73.77Z"/><path class="flower4-cls-6" d="M43.67,75.31h0a22.64,22.64,0,0,0,34.1-29.53h0S86.05,88.42,43.67,75.31Z"/><path class="flower4-cls-4" d="M62,84.67c-.44,0-.87,0-1.3,0C61.13,84.65,61.56,84.67,62,84.67Z"/><path class="flower4-cls-4" d="M60.3,84.6l-.89-.08Z"/><path class="flower4-cls-4" d="M84.17,57.41c.06.26.1.53.15.8C84.27,57.94,84.23,57.67,84.17,57.41Z"/><path class="flower4-cls-4" d="M83.91,56.29c.07.27.13.54.19.82C84,56.83,84,56.56,83.91,56.29Z"/><path class="flower4-cls-4" d="M84.38,58.54c0,.26.07.52.1.79C84.45,59.06,84.42,58.8,84.38,58.54Z"/><path class="flower4-cls-4" d="M73.74,81.39a21.84,21.84,0,0,1-2.93,1.5A21.84,21.84,0,0,0,73.74,81.39Z"/><path class="flower4-cls-5" d="M58.12,84.33l-.43-.08Z"/><path class="flower4-cls-5" d="M59.41,84.52,59,84.46Z"/><path class="flower4-cls-5" d="M56.78,84.06,56.46,84Z"/><path class="flower4-cls-5" d="M60.7,84.63l-.4,0Z"/><path class="flower4-cls-5" d="M84.32,58.21l.06.33Z"/><path class="flower4-cls-5" d="M84.1,57.11c0,.1.05.2.07.3C84.15,57.31,84.12,57.21,84.1,57.11Z"/><path class="flower4-cls-5" d="M83.84,56l.07.25Z"/><path class="flower4-cls-5" d="M83.52,55a1.72,1.72,0,0,1,.07.21A1.72,1.72,0,0,0,83.52,55Z"/><path class="flower4-cls-5" d="M83.16,54a1.22,1.22,0,0,0,.07.17A1.22,1.22,0,0,1,83.16,54Z"/><path class="flower4-cls-5" d="M84.59,60.52c0,.11,0,.22,0,.33C84.61,60.74,84.6,60.63,84.59,60.52Z"/><polygon class="flower4-cls-5" points="77.77 45.78 77.77 45.78 77.77 45.78 77.77 45.78"/><path class="flower4-cls-5" d="M84.48,59.33c0,.12,0,.24,0,.36C84.51,59.57,84.49,59.45,84.48,59.33Z"/><path class="flower4-cls-5" d="M80.63,49.16Z"/><path class="flower4-cls-5" d="M81.78,51l0,.05Z"/><path class="flower4-cls-5" d="M82.29,52l0,.09Z"/><path class="flower4-cls-5" d="M82.75,53a.61.61,0,0,1,0,.12A.61.61,0,0,0,82.75,53Z"/><path class="flower4-cls-5" d="M81.23,50.07l0,0Z"/><path class="flower4-cls-5" d="M84.61,60.85c0-.11,0-.22,0-.33,0-.28,0-.56-.07-.83,0-.12,0-.24,0-.36s-.06-.53-.1-.79l-.06-.33c0-.27-.09-.54-.15-.8,0-.1,0-.2-.07-.3-.06-.28-.12-.55-.19-.82L83.84,56c-.08-.28-.16-.56-.25-.84a1.72,1.72,0,0,0-.07-.21c-.09-.29-.19-.58-.29-.86a1.22,1.22,0,0,1-.07-.17c-.11-.29-.23-.59-.36-.88a.61.61,0,0,0,0-.12q-.19-.47-.42-.9l0-.09c-.15-.3-.31-.61-.48-.91l0-.05c-.17-.31-.35-.61-.53-.91l0,0c-.19-.31-.39-.61-.6-.91h0a22.54,22.54,0,0,0-2.86-3.38h0a22.64,22.64,0,0,1-34.1,29.53h0a22.56,22.56,0,0,0,2.56,3l0,0c.29.28.59.55.89.81l.1.09c.3.26.61.51.92.75l.07.05a22.41,22.41,0,0,0,2.14,1.46l0,0,1,.58.24.12.89.43.29.13.91.38.26.1a21.73,21.73,0,0,0,2.41.75l.32.08c.3.07.6.14.91.19l.43.08.84.13.45.06.89.08.4,0c.43,0,.86,0,1.3,0a22.39,22.39,0,0,0,2.32-.12,20.48,20.48,0,0,0,2.24-.34,22.25,22.25,0,0,0,2.17-.56,20.58,20.58,0,0,0,2.08-.76,21.84,21.84,0,0,0,2.93-1.5c.31-.19.62-.38.92-.59a22.71,22.71,0,0,0,5.49-5.23c.43-.58.84-1.18,1.22-1.8A22.57,22.57,0,0,0,84.64,62C84.64,61.63,84.63,61.24,84.61,60.85Z"/><path class="flower4-cls-7" d="M44.1,71.41A1.18,1.18,0,0,1,43,70.67c-.06-.16-5.71-15.91,5.66-24.11,11.19-8.07,22.89-3.43,26.81.08a1.18,1.18,0,0,1,.09,1.67,1.19,1.19,0,0,1-1.67.09c-3.31-3-13.93-7.08-23.85.08s-4.9,21.17-4.85,21.31a1.17,1.17,0,0,1-.66,1.53A1.12,1.12,0,0,1,44.1,71.41Z"/><circle class="flower4-cls-7" cx="46.35" cy="73.61" r="1.01"/></svg>