<svg id="flower_8" data-name="Layer 1" xmlns="http://www.w3.org/2000/svg" viewBox="0 0 64 63.62"><defs><style>.flower8-cls-1{fill:#f5d5d1;}.flower8-cls-2{fill:#fde3e0;}.flower8-cls-3{fill:none;}.flower8-cls-4{fill:#fba81f;}.flower8-cls-5{fill:#ee7923;}.flower8-cls-6{fill:#f7931e;}.flower8-cls-7{fill:#ffca1c;}</style></defs><title>svg8</title><ellipse class="flower8-cls-1" cx="13.62" cy="24.45" rx="4.2" ry="11.31" transform="translate(-14.55 27.89) rotate(-68)"/><ellipse class="flower8-cls-1" cx="13.54" cy="39.99" rx="11.31" ry="4.2" transform="translate(-14.94 8.43) rotate(-23)"/><ellipse class="flower8-cls-1" cx="24.59" cy="51.35" rx="11.31" ry="4.2" transform="translate(-32.63 54.88) rotate(-68)"/><ellipse class="flower8-cls-1" cx="40.72" cy="51.14" rx="4.2" ry="11.69" transform="translate(-17.14 19.95) rotate(-23)"/><ellipse class="flower8-cls-1" cx="51.68" cy="39.83" rx="4.2" ry="11.74" transform="translate(-5 72.79) rotate(-68)"/><ellipse class="flower8-cls-1" cx="51.66" cy="24.25" rx="11.69" ry="4.2" transform="translate(-5.76 22.08) rotate(-23)"/><ellipse class="flower8-cls-1" cx="40.47" cy="12.99" rx="11.31" ry="4.2" transform="translate(12.87 45.61) rotate(-68)"/><ellipse class="flower8-cls-1" cx="24.59" cy="13.05" rx="4.2" ry="11.31" transform="translate(-3.54 10.61) rotate(-23)"/><ellipse class="flower8-cls-2" cx="32" cy="11.31" rx="4.2" ry="11.31"/><ellipse class="flower8-cls-2" cx="17.69" cy="17.35" rx="4.2" ry="11.31" transform="translate(-7.48 17.56) rotate(-45)"/><ellipse class="flower8-cls-2" cx="11.31" cy="32.19" rx="11.31" ry="4.2"/><ellipse class="flower8-cls-2" cx="17.71" cy="46.92" rx="11.31" ry="4.2" transform="translate(-28.38 26.24) rotate(-45)"/><ellipse class="flower8-cls-2" cx="32" cy="52.31" rx="4.2" ry="11.31"/><ellipse class="flower8-cls-2" cx="47.1" cy="46.81" rx="4.2" ry="11.31" transform="translate(-19.7 46.98) rotate(-45)"/><ellipse class="flower8-cls-2" cx="52.69" cy="31.91" rx="11.31" ry="4.2"/><ellipse class="flower8-cls-2" cx="46.88" cy="17.44" rx="11.59" ry="4.2" transform="translate(1.01 38.22) rotate(-45)"/><polygon class="flower8-cls-3" points="46.28 40.84 46.28 40.84 46.28 40.84 46.28 40.84"/><path class="flower8-cls-4" d="M49,43.27c-.17-.12-.32-.25-.48-.38C48.69,43,48.84,43.15,49,43.27Z" transform="translate(-0.39 -0.03)"/><path class="flower8-cls-4" d="M50.15,44.05A10.78,10.78,0,0,1,49,43.3,10.78,10.78,0,0,0,50.15,44.05Z" transform="translate(-0.39 -0.03)"/><path class="flower8-cls-4" d="M51.9,44.91l-.47-.2Z" transform="translate(-0.39 -0.03)"/><path class="flower8-cls-4" d="M51.28,44.65l-.46-.23Z" transform="translate(-0.39 -0.03)"/><path class="flower8-cls-4" d="M48.48,42.84c-.16-.14-.31-.27-.46-.42C48.17,42.57,48.32,42.7,48.48,42.84Z" transform="translate(-0.39 -0.03)"/><path class="flower8-cls-4" d="M50.7,44.36l-.54-.3Z" transform="translate(-0.39 -0.03)"/><path class="flower8-cls-4" d="M48,42.4a11.89,11.89,0,0,1-1.32-1.52A11.89,11.89,0,0,0,48,42.4Z" transform="translate(-0.39 -0.03)"/><path class="flower8-cls-5" d="M50.82,44.42l-.12-.06Z" transform="translate(-0.39 -0.03)"/><path class="flower8-cls-5" d="M51.43,44.71l-.15-.06Z" transform="translate(-0.39 -0.03)"/><path class="flower8-cls-5" d="M52,45l-.13-.05Z" transform="translate(-0.39 -0.03)"/><path class="flower8-cls-5" d="M50.16,44.06h0Z" transform="translate(-0.39 -0.03)"/><polygon class="flower8-cls-5" points="46.28 40.84 46.28 40.84 46.28 40.84 46.28 40.84"/><path class="flower8-cls-5" d="M48.53,42.89l-.05,0Z" transform="translate(-0.39 -0.03)"/><path class="flower8-cls-5" d="M48,42.42l0,0Z" transform="translate(-0.39 -0.03)"/><path class="flower8-cls-5" d="M49,43.3l0,0Z" transform="translate(-0.39 -0.03)"/><path class="flower8-cls-4" d="M42.89,26.93l.21.47Z" transform="translate(-0.39 -0.03)"/><path class="flower8-cls-4" d="M43.94,30.28l.06.41Z" transform="translate(-0.39 -0.03)"/><path class="flower8-cls-4" d="M44.07,31.47c0,.2,0,.41,0,.61C44.08,31.88,44.08,31.67,44.07,31.47Z" transform="translate(-0.39 -0.03)"/><path class="flower8-cls-4" d="M43.84,29.69c0,.14,0,.28.07.42C43.89,30,43.86,29.83,43.84,29.69Z" transform="translate(-0.39 -0.03)"/><path class="flower8-cls-4" d="M43.54,28.56l.12.43Z" transform="translate(-0.39 -0.03)"/><path class="flower8-cls-4" d="M43.13,27.46c.07.15.13.3.19.46C43.26,27.76,43.2,27.61,43.13,27.46Z" transform="translate(-0.39 -0.03)"/><path class="flower8-cls-4" d="M43.35,28l.15.45Z" transform="translate(-0.39 -0.03)"/><path class="flower8-cls-4" d="M43.7,29.12c0,.14.07.28.1.42C43.77,29.4,43.74,29.26,43.7,29.12Z" transform="translate(-0.39 -0.03)"/><path class="flower8-cls-4" d="M44,30.87l0,.43Z" transform="translate(-0.39 -0.03)"/><path class="flower8-cls-5" d="M43.66,29a.65.65,0,0,1,0,.13A.65.65,0,0,0,43.66,29Z" transform="translate(-0.39 -0.03)"/><path class="flower8-cls-5" d="M43.8,29.54c0,.05,0,.1,0,.15S43.81,29.59,43.8,29.54Z" transform="translate(-0.39 -0.03)"/><path class="flower8-cls-5" d="M44,30.69a1.1,1.1,0,0,0,0,.18A1.1,1.1,0,0,1,44,30.69Z" transform="translate(-0.39 -0.03)"/><path class="flower8-cls-5" d="M43.91,30.11l0,.17Z" transform="translate(-0.39 -0.03)"/><path class="flower8-cls-5" d="M43.5,28.45s0,.07,0,.11S43.51,28.48,43.5,28.45Z" transform="translate(-0.39 -0.03)"/><path class="flower8-cls-5" d="M42.87,26.89l0,0Z" transform="translate(-0.39 -0.03)"/><path class="flower8-cls-5" d="M44.05,31.3c0,.06,0,.11,0,.17S44.06,31.36,44.05,31.3Z" transform="translate(-0.39 -0.03)"/><path class="flower8-cls-5" d="M43.32,27.92l0,.08Z" transform="translate(-0.39 -0.03)"/><path class="flower8-cls-5" d="M43.1,27.4l0,.06Z" transform="translate(-0.39 -0.03)"/><circle class="flower8-cls-4" cx="32.03" cy="32.01" r="11.7"/><polygon class="flower8-cls-3" points="40.14 23.63 40.14 23.63 40.14 23.63 40.14 23.63"/><path class="flower8-cls-4" d="M42.89,26.9l.21.47Z" transform="translate(-0.39 -0.03)"/><path class="flower8-cls-4" d="M30.82,43.62l-.43-.06Z" transform="translate(-0.39 -0.03)"/><path class="flower8-cls-4" d="M42,25.41c.11.15.21.31.31.47C42.22,25.72,42.12,25.56,42,25.41Z" transform="translate(-0.39 -0.03)"/><path class="flower8-cls-4" d="M42.33,25.89c.09.15.19.31.27.47C42.52,26.2,42.42,26,42.33,25.89Z" transform="translate(-0.39 -0.03)"/><path class="flower8-cls-4" d="M29.54,43.38A12.14,12.14,0,0,1,28.29,43,12.14,12.14,0,0,0,29.54,43.38Z" transform="translate(-0.39 -0.03)"/><path class="flower8-cls-4" d="M43.35,28l.15.44Z" transform="translate(-0.39 -0.03)"/><path class="flower8-cls-4" d="M30.17,43.52l-.47-.1Z" transform="translate(-0.39 -0.03)"/><path class="flower8-cls-4" d="M43.13,27.43c.07.15.13.3.19.45C43.26,27.73,43.2,27.58,43.13,27.43Z" transform="translate(-0.39 -0.03)"/><path class="flower8-cls-4" d="M42.62,26.39c.09.15.17.31.25.47C42.79,26.7,42.71,26.54,42.62,26.39Z" transform="translate(-0.39 -0.03)"/><path class="flower8-cls-4" d="M40.53,23.66A12.27,12.27,0,0,1,42,25.4,12.27,12.27,0,0,0,40.53,23.66Z" transform="translate(-0.39 -0.03)"/><path class="flower8-cls-4" d="M44.07,31.44c0,.2,0,.4,0,.61C44.08,31.84,44.08,31.64,44.07,31.44Z" transform="translate(-0.39 -0.03)"/><path class="flower8-cls-4" d="M40.66,40.31a11.84,11.84,0,0,1-1.73,1.43A11.84,11.84,0,0,0,40.66,40.31Z" transform="translate(-0.39 -0.03)"/><path class="flower8-cls-4" d="M34.75,43.5c-.38.07-.77.13-1.16.17C34,43.63,34.37,43.57,34.75,43.5Z" transform="translate(-0.39 -0.03)"/><path class="flower8-cls-4" d="M44,30.84l0,.43Z" transform="translate(-0.39 -0.03)"/><path class="flower8-cls-4" d="M43.54,28.52c0,.15.09.29.12.44C43.63,28.81,43.58,28.67,43.54,28.52Z" transform="translate(-0.39 -0.03)"/><path class="flower8-cls-4" d="M35.87,43.21c-.37.11-.74.21-1.12.29C35.13,43.42,35.5,43.32,35.87,43.21Z" transform="translate(-0.39 -0.03)"/><path class="flower8-cls-4" d="M42.39,38.11q-.3.48-.63.93Q42.09,38.59,42.39,38.11Z" transform="translate(-0.39 -0.03)"/><path class="flower8-cls-6" d="M22.93,38.9h0a11.68,11.68,0,0,0,17.6-15.24h0S44.81,45.67,22.93,38.9Z" transform="translate(-0.39 -0.03)"/><path class="flower8-cls-4" d="M32.39,43.73c-.22,0-.44,0-.67,0C32,43.73,32.17,43.73,32.39,43.73Z" transform="translate(-0.39 -0.03)"/><path class="flower8-cls-4" d="M31.51,43.7l-.45-.05Z" transform="translate(-0.39 -0.03)"/><path class="flower8-cls-4" d="M43.84,29.66c0,.14,0,.28.07.41C43.89,29.94,43.86,29.8,43.84,29.66Z" transform="translate(-0.39 -0.03)"/><path class="flower8-cls-4" d="M43.7,29.09c0,.14.07.28.1.42C43.77,29.37,43.74,29.23,43.7,29.09Z" transform="translate(-0.39 -0.03)"/><path class="flower8-cls-4" d="M43.94,30.24l.06.41Z" transform="translate(-0.39 -0.03)"/><path class="flower8-cls-4" d="M38.45,42a11.27,11.27,0,0,1-1.51.77A11.27,11.27,0,0,0,38.45,42Z" transform="translate(-0.39 -0.03)"/><path class="flower8-cls-5" d="M30.39,43.56l-.22,0Z" transform="translate(-0.39 -0.03)"/><path class="flower8-cls-5" d="M31.06,43.65a1,1,0,0,1-.24,0A1,1,0,0,0,31.06,43.65Z" transform="translate(-0.39 -0.03)"/><path class="flower8-cls-5" d="M29.7,43.42l-.16,0Z" transform="translate(-0.39 -0.03)"/><path class="flower8-cls-5" d="M31.72,43.71h0Z" transform="translate(-0.39 -0.03)"/><path class="flower8-cls-5" d="M43.91,30.07l0,.17Z" transform="translate(-0.39 -0.03)"/><path class="flower8-cls-5" d="M43.8,29.51s0,.1,0,.15S43.81,29.56,43.8,29.51Z" transform="translate(-0.39 -0.03)"/><path class="flower8-cls-5" d="M43.66,29a.5.5,0,0,1,0,.13A.5.5,0,0,0,43.66,29Z" transform="translate(-0.39 -0.03)"/><path class="flower8-cls-5" d="M43.5,28.41s0,.08,0,.11S43.51,28.45,43.5,28.41Z" transform="translate(-0.39 -0.03)"/><path class="flower8-cls-5" d="M43.32,27.88l0,.09Z" transform="translate(-0.39 -0.03)"/><path class="flower8-cls-5" d="M44.05,31.27c0,.05,0,.11,0,.17S44.06,31.32,44.05,31.27Z" transform="translate(-0.39 -0.03)"/><polygon class="flower8-cls-5" points="40.14 23.63 40.14 23.63 40.14 23.63 40.14 23.63"/><path class="flower8-cls-5" d="M44,30.65a1.11,1.11,0,0,0,0,.19A1.11,1.11,0,0,1,44,30.65Z" transform="translate(-0.39 -0.03)"/><path class="flower8-cls-5" d="M42,25.4h0Z" transform="translate(-0.39 -0.03)"/><path class="flower8-cls-5" d="M42.6,26.36l0,0Z" transform="translate(-0.39 -0.03)"/><path class="flower8-cls-5" d="M42.87,26.86l0,0Z" transform="translate(-0.39 -0.03)"/><path class="flower8-cls-5" d="M43.1,27.37l0,.06Z" transform="translate(-0.39 -0.03)"/><path class="flower8-cls-5" d="M42.32,25.88h0Z" transform="translate(-0.39 -0.03)"/><path class="flower8-cls-5" d="M44.07,31.44c0-.06,0-.12,0-.17l0-.43a1.11,1.11,0,0,1,0-.19l-.06-.41,0-.17c0-.13,0-.27-.07-.41s0-.1,0-.15-.06-.28-.1-.42a.5.5,0,0,0,0-.13c0-.15-.08-.29-.12-.44s0-.07,0-.11L43.35,28l0-.09c-.06-.15-.12-.3-.19-.45l0-.06-.21-.47,0,0c-.08-.16-.16-.32-.25-.47l0,0c-.08-.16-.18-.32-.27-.47h0c-.1-.16-.2-.32-.31-.47h0a12.27,12.27,0,0,0-1.48-1.74h0A11.68,11.68,0,0,1,22.93,38.9h0a12.08,12.08,0,0,0,1.32,1.53l0,0,.45.42.06,0a5.71,5.71,0,0,0,.47.39l0,0a11.84,11.84,0,0,0,1.1.75h0l.54.3.12.06.45.22.15.07.47.2.14.05a12.14,12.14,0,0,0,1.25.39l.16,0,.47.1.22,0,.43.06a1,1,0,0,0,.24,0l.45.05h.21c.23,0,.45,0,.67,0a11.76,11.76,0,0,0,1.2-.06c.39,0,.78-.1,1.16-.17s.75-.18,1.12-.29.72-.25,1.07-.4A11.27,11.27,0,0,0,38.45,42l.48-.3a11.84,11.84,0,0,0,1.73-1.43A13.35,13.35,0,0,0,41.76,39q.33-.45.63-.93a11.7,11.7,0,0,0,1.69-6.06C44.08,31.84,44.08,31.64,44.07,31.44Z" transform="translate(-0.39 -0.03)"/><path class="flower8-cls-7" d="M23.16,36.89a.63.63,0,0,1-.57-.38c0-.08-2.94-8.21,2.92-12.45a11.44,11.44,0,0,1,13.84,0,.63.63,0,0,1,0,.87.6.6,0,0,1-.86,0,10.33,10.33,0,0,0-12.31,0c-5.08,3.67-2.53,10.93-2.51,11a.6.6,0,0,1-.34.79A.59.59,0,0,1,23.16,36.89Z" transform="translate(-0.39 -0.03)"/><circle class="flower8-cls-7" cx="23.92" cy="37.99" r="0.52"/></svg>