<svg id="flower_9" data-name="Layer 1" xmlns="http://www.w3.org/2000/svg" viewBox="0 0 64 63.62"><defs><style>.flower9-cls-1{fill:#e6e7e7;}.flower9-cls-2{fill:#f2f2f2;}.flower9-cls-3{fill:none;}.flower9-cls-4{fill:#fba81f;}.flower9-cls-5{fill:#ee7923;}.flower9-cls-6{fill:#f7931e;}.flower9-cls-7{fill:#ffca1c;}</style></defs><title>svg9</title><ellipse class="flower9-cls-1" cx="13.23" cy="24.62" rx="4.2" ry="11.31" transform="translate(-14.56 27.46) rotate(-68)"/><ellipse class="flower9-cls-1" cx="13.14" cy="40.16" rx="11.31" ry="4.2" transform="translate(-14.65 8.12) rotate(-23)"/><ellipse class="flower9-cls-1" cx="24.19" cy="51.52" rx="11.31" ry="4.2" transform="translate(-32.64 54.45) rotate(-68)"/><ellipse class="flower9-cls-1" cx="40.33" cy="51.31" rx="4.2" ry="11.69" transform="translate(-16.84 19.63) rotate(-23)"/><ellipse class="flower9-cls-1" cx="51.28" cy="40" rx="4.2" ry="11.74" transform="translate(-5.01 72.36) rotate(-68)"/><ellipse class="flower9-cls-1" cx="51.27" cy="24.42" rx="11.69" ry="4.2" transform="translate(-5.47 21.77) rotate(-23)"/><ellipse class="flower9-cls-1" cx="40.07" cy="13.16" rx="11.31" ry="4.2" transform="translate(12.86 45.18) rotate(-68)"/><ellipse class="flower9-cls-1" cx="24.19" cy="13.22" rx="4.2" ry="11.31" transform="translate(-3.24 10.3) rotate(-23)"/><ellipse class="flower9-cls-2" cx="32" cy="11.31" rx="4.2" ry="11.31"/><ellipse class="flower9-cls-2" cx="17.3" cy="17.53" rx="4.2" ry="11.31" transform="translate(-7.33 17.16) rotate(-45)"/><ellipse class="flower9-cls-2" cx="11.31" cy="32.19" rx="11.31" ry="4.2"/><ellipse class="flower9-cls-2" cx="17.32" cy="47.09" rx="11.31" ry="4.2" transform="translate(-28.23 25.83) rotate(-45)"/><ellipse class="flower9-cls-2" cx="32" cy="52.31" rx="4.2" ry="11.31"/><ellipse class="flower9-cls-2" cx="46.7" cy="46.98" rx="4.2" ry="11.31" transform="translate(-19.54 46.58) rotate(-45)"/><ellipse class="flower9-cls-2" cx="52.69" cy="31.91" rx="11.31" ry="4.2"/><ellipse class="flower9-cls-2" cx="46.49" cy="17.61" rx="11.59" ry="4.2" transform="translate(1.16 37.82) rotate(-45)"/><polygon class="flower9-cls-3" points="46.28 40.84 46.28 40.84 46.28 40.84 46.28 40.84"/><path class="flower9-cls-4" d="M48.61,43.45l-.47-.39Z" transform="translate(0 -0.21)"/><path class="flower9-cls-4" d="M49.75,44.23a11.94,11.94,0,0,1-1.1-.76A11.94,11.94,0,0,0,49.75,44.23Z" transform="translate(0 -0.21)"/><path class="flower9-cls-4" d="M51.51,45.08,51,44.89Z" transform="translate(0 -0.21)"/><path class="flower9-cls-4" d="M50.89,44.82l-.46-.22Z" transform="translate(0 -0.21)"/><path class="flower9-cls-4" d="M48.08,43q-.22-.19-.45-.42Q47.86,42.82,48.08,43Z" transform="translate(0 -0.21)"/><path class="flower9-cls-4" d="M50.31,44.54l-.54-.3Z" transform="translate(0 -0.21)"/><path class="flower9-cls-4" d="M47.6,42.57a12.73,12.73,0,0,1-1.32-1.52A12.73,12.73,0,0,0,47.6,42.57Z" transform="translate(0 -0.21)"/><path class="flower9-cls-5" d="M50.43,44.6l-.12-.06Z" transform="translate(0 -0.21)"/><path class="flower9-cls-5" d="M51,44.89l-.15-.07Z" transform="translate(0 -0.21)"/><path class="flower9-cls-5" d="M51.64,45.13l-.13-.05Z" transform="translate(0 -0.21)"/><path class="flower9-cls-5" d="M49.77,44.24h0Z" transform="translate(0 -0.21)"/><polygon class="flower9-cls-5" points="46.28 40.84 46.28 40.84 46.28 40.84 46.28 40.84"/><path class="flower9-cls-5" d="M48.14,43.06,48.08,43Z" transform="translate(0 -0.21)"/><path class="flower9-cls-5" d="M47.63,42.59l0,0Z" transform="translate(0 -0.21)"/><path class="flower9-cls-5" d="M48.65,43.47l0,0Z" transform="translate(0 -0.21)"/><path class="flower9-cls-4" d="M42.49,27.11c.08.15.15.31.22.46C42.64,27.42,42.57,27.26,42.49,27.11Z" transform="translate(0 -0.21)"/><path class="flower9-cls-4" d="M43.55,30.45c0,.14,0,.27.05.41C43.59,30.72,43.57,30.59,43.55,30.45Z" transform="translate(0 -0.21)"/><path class="flower9-cls-4" d="M43.67,31.64c0,.21,0,.41,0,.61C43.69,32.05,43.68,31.85,43.67,31.64Z" transform="translate(0 -0.21)"/><path class="flower9-cls-4" d="M43.44,29.87c0,.13.05.27.08.41C43.49,30.14,43.47,30,43.44,29.87Z" transform="translate(0 -0.21)"/><path class="flower9-cls-4" d="M43.15,28.73l.12.43Z" transform="translate(0 -0.21)"/><path class="flower9-cls-4" d="M42.74,27.63l.18.46Z" transform="translate(0 -0.21)"/><path class="flower9-cls-4" d="M43,28.18c.06.14.11.29.16.44C43.06,28.47,43,28.32,43,28.18Z" transform="translate(0 -0.21)"/><path class="flower9-cls-4" d="M43.31,29.29c0,.14.07.28.1.42C43.38,29.57,43.34,29.43,43.31,29.29Z" transform="translate(0 -0.21)"/><path class="flower9-cls-4" d="M43.63,31l0,.43Z" transform="translate(0 -0.21)"/><path class="flower9-cls-5" d="M43.27,29.16c0,.05,0,.09,0,.13S43.28,29.21,43.27,29.16Z" transform="translate(0 -0.21)"/><path class="flower9-cls-5" d="M43.41,29.71l0,.16Z" transform="translate(0 -0.21)"/><path class="flower9-cls-5" d="M43.6,30.86l0,.18Z" transform="translate(0 -0.21)"/><path class="flower9-cls-5" d="M43.52,30.28l0,.17Z" transform="translate(0 -0.21)"/><path class="flower9-cls-5" d="M43.11,28.62a.49.49,0,0,0,0,.11A.49.49,0,0,1,43.11,28.62Z" transform="translate(0 -0.21)"/><path class="flower9-cls-5" d="M42.47,27.06l0,.05Z" transform="translate(0 -0.21)"/><path class="flower9-cls-5" d="M43.66,31.47c0,.06,0,.12,0,.17S43.66,31.53,43.66,31.47Z" transform="translate(0 -0.21)"/><path class="flower9-cls-5" d="M42.92,28.09l0,.09Z" transform="translate(0 -0.21)"/><path class="flower9-cls-5" d="M42.71,27.57l0,.06Z" transform="translate(0 -0.21)"/><circle class="flower9-cls-4" cx="32" cy="32.01" r="11.7"/><polygon class="flower9-cls-3" points="40.14 23.63 40.14 23.63 40.14 23.63 40.14 23.63"/><path class="flower9-cls-4" d="M42.49,27.07c.08.16.15.31.22.47C42.64,27.38,42.57,27.23,42.49,27.07Z" transform="translate(0 -0.21)"/><path class="flower9-cls-4" d="M30.43,43.8,30,43.73Z" transform="translate(0 -0.21)"/><path class="flower9-cls-4" d="M41.62,25.58l.31.47Z" transform="translate(0 -0.21)"/><path class="flower9-cls-4" d="M41.93,26.06l.28.47Z" transform="translate(0 -0.21)"/><path class="flower9-cls-4" d="M29.14,43.55a8.92,8.92,0,0,1-1.24-.39A10.5,10.5,0,0,0,29.14,43.55Z" transform="translate(0 -0.21)"/><path class="flower9-cls-4" d="M43,28.14c.06.15.11.3.16.45C43.06,28.44,43,28.29,43,28.14Z" transform="translate(0 -0.21)"/><path class="flower9-cls-4" d="M29.78,43.69l-.48-.1Z" transform="translate(0 -0.21)"/><path class="flower9-cls-4" d="M42.74,27.6l.18.46Z" transform="translate(0 -0.21)"/><path class="flower9-cls-4" d="M42.23,26.56l.24.47Z" transform="translate(0 -0.21)"/><path class="flower9-cls-4" d="M40.14,23.84a11.73,11.73,0,0,1,1.48,1.74A11.73,11.73,0,0,0,40.14,23.84Z" transform="translate(0 -0.21)"/><path class="flower9-cls-4" d="M43.67,31.61c0,.2,0,.41,0,.61C43.69,32,43.68,31.81,43.67,31.61Z" transform="translate(0 -0.21)"/><path class="flower9-cls-4" d="M40.26,40.48a10.87,10.87,0,0,1-1.73,1.43A10.87,10.87,0,0,0,40.26,40.48Z" transform="translate(0 -0.21)"/><path class="flower9-cls-4" d="M34.36,43.67a11.38,11.38,0,0,1-1.17.18A11.38,11.38,0,0,0,34.36,43.67Z" transform="translate(0 -0.21)"/><path class="flower9-cls-4" d="M43.63,31l0,.43Z" transform="translate(0 -0.21)"/><path class="flower9-cls-4" d="M43.15,28.7l.12.43Z" transform="translate(0 -0.21)"/><path class="flower9-cls-4" d="M35.48,43.38c-.37.11-.74.21-1.12.29C34.74,43.59,35.11,43.49,35.48,43.38Z" transform="translate(0 -0.21)"/><path class="flower9-cls-4" d="M42,38.28q-.3.48-.63.93Q41.7,38.76,42,38.28Z" transform="translate(0 -0.21)"/><path class="flower9-cls-6" d="M22.54,39.08h0a11.68,11.68,0,0,0,17.6-15.24h0S44.41,45.84,22.54,39.08Z" transform="translate(0 -0.21)"/><path class="flower9-cls-4" d="M32,43.91l-.67,0Z" transform="translate(0 -0.21)"/><path class="flower9-cls-4" d="M31.12,43.87l-.46,0Z" transform="translate(0 -0.21)"/><path class="flower9-cls-4" d="M43.44,29.83c0,.14.05.28.08.42C43.49,30.11,43.47,30,43.44,29.83Z" transform="translate(0 -0.21)"/><path class="flower9-cls-4" d="M43.31,29.26c0,.14.07.28.1.42C43.38,29.54,43.34,29.4,43.31,29.26Z" transform="translate(0 -0.21)"/><path class="flower9-cls-4" d="M43.55,30.42c0,.13,0,.27.05.41C43.59,30.69,43.57,30.55,43.55,30.42Z" transform="translate(0 -0.21)"/><path class="flower9-cls-4" d="M38.06,42.21a10.78,10.78,0,0,1-1.51.78A10.78,10.78,0,0,0,38.06,42.21Z" transform="translate(0 -0.21)"/><path class="flower9-cls-5" d="M30,43.73l-.22,0Z" transform="translate(0 -0.21)"/><path class="flower9-cls-5" d="M30.66,43.83l-.23,0Z" transform="translate(0 -0.21)"/><path class="flower9-cls-5" d="M29.3,43.59l-.16,0Z" transform="translate(0 -0.21)"/><path class="flower9-cls-5" d="M31.33,43.89l-.21,0Z" transform="translate(0 -0.21)"/><path class="flower9-cls-5" d="M43.52,30.25l0,.17Z" transform="translate(0 -0.21)"/><path class="flower9-cls-5" d="M43.41,29.68l0,.15Z" transform="translate(0 -0.21)"/><path class="flower9-cls-5" d="M43.27,29.13l0,.13Z" transform="translate(0 -0.21)"/><path class="flower9-cls-5" d="M43.11,28.59a.76.76,0,0,0,0,.11A.76.76,0,0,1,43.11,28.59Z" transform="translate(0 -0.21)"/><path class="flower9-cls-5" d="M42.92,28.06l0,.08Z" transform="translate(0 -0.21)"/><path class="flower9-cls-5" d="M43.66,31.44c0,.06,0,.11,0,.17S43.66,31.5,43.66,31.44Z" transform="translate(0 -0.21)"/><polygon class="flower9-cls-5" points="40.14 23.63 40.14 23.63 40.14 23.63 40.14 23.63"/><path class="flower9-cls-5" d="M43.6,30.83l0,.18Z" transform="translate(0 -0.21)"/><path class="flower9-cls-5" d="M41.62,25.58Z" transform="translate(0 -0.21)"/><path class="flower9-cls-5" d="M42.21,26.53l0,0Z" transform="translate(0 -0.21)"/><path class="flower9-cls-5" d="M42.47,27l0,0Z" transform="translate(0 -0.21)"/><path class="flower9-cls-5" d="M42.71,27.54l0,.06Z" transform="translate(0 -0.21)"/><path class="flower9-cls-5" d="M41.93,26.05h0Z" transform="translate(0 -0.21)"/><path class="flower9-cls-5" d="M43.67,31.61c0-.06,0-.11,0-.17l0-.43,0-.18c0-.14,0-.28-.05-.41l0-.17c0-.14-.05-.28-.08-.42l0-.15c0-.14-.07-.28-.1-.42l0-.13-.12-.43a.76.76,0,0,1,0-.11c0-.15-.1-.3-.16-.45l0-.08-.18-.46,0-.06c-.07-.16-.14-.31-.22-.47l0,0-.24-.47,0,0-.28-.47h0l-.31-.47h0a11.73,11.73,0,0,0-1.48-1.74h0a11.68,11.68,0,0,1-17.6,15.24h0a12.73,12.73,0,0,0,1.32,1.52l0,0a6,6,0,0,0,.46.42l.05.05.48.38,0,0q.54.41,1.11.75h0a5.54,5.54,0,0,0,.53.3l.12.07.46.22.15.07.47.19.14,0a8.92,8.92,0,0,0,1.24.39l.16,0,.48.1.22,0,.43.07.23,0,.46,0,.21,0,.67,0a11.71,11.71,0,0,0,1.19-.06,11.38,11.38,0,0,0,1.17-.18c.38-.08.75-.18,1.12-.29A10.55,10.55,0,0,0,36.55,43a10.78,10.78,0,0,0,1.51-.78c.16-.09.32-.2.47-.3a10.87,10.87,0,0,0,1.73-1.43,11.22,11.22,0,0,0,1.11-1.27q.33-.45.63-.93a11.67,11.67,0,0,0,1.69-6.06C43.69,32,43.68,31.81,43.67,31.61Z" transform="translate(0 -0.21)"/><path class="flower9-cls-7" d="M22.76,37.06a.59.59,0,0,1-.56-.38c0-.08-2.95-8.21,2.92-12.44a11.42,11.42,0,0,1,13.84,0,.6.6,0,0,1,0,.86.61.61,0,0,1-.86.05,10.3,10.3,0,0,0-12.31,0c-5.08,3.66-2.53,10.92-2.5,11a.6.6,0,0,1-.57.83Z" transform="translate(0 -0.21)"/><circle class="flower9-cls-7" cx="23.92" cy="37.99" r="0.52"/></svg>