<svg id="flower_2" data-name="Layer 1" xmlns="http://www.w3.org/2000/svg" viewBox="0 0 256 254.48"><defs><style>.flower2-cls-1{fill:#d0cfe1;}.flower2-cls-2{fill:#e6e5f3;}.flower2-cls-3{fill:none;}.flower2-cls-4{fill:#fba81f;}.flower2-cls-5{fill:#ee7923;}.flower2-cls-6{fill:#f7931e;}.flower2-cls-7{fill:#ffca1c;}</style></defs><title>svg2</title><ellipse class="flower2-cls-1" cx="52.91" cy="97.67" rx="16.8" ry="45.26" transform="translate(-57.47 110.14) rotate(-68)"/><ellipse class="flower2-cls-1" cx="52.57" cy="159.81" rx="45.26" ry="16.8" transform="translate(-58.26 33.24) rotate(-23)"/><ellipse class="flower2-cls-1" cx="96.78" cy="205.26" rx="45.26" ry="16.8" transform="matrix(0.37, -0.93, 0.93, 0.37, -129.79, 218.1)"/><ellipse class="flower2-cls-1" cx="161.32" cy="204.44" rx="16.8" ry="46.76" transform="translate(-67.06 79.28) rotate(-23)"/><ellipse class="flower2-cls-1" cx="205.13" cy="159.17" rx="16.8" ry="46.96" transform="translate(-19.3 289.74) rotate(-68)"/><ellipse class="flower2-cls-1" cx="205.08" cy="96.87" rx="46.76" ry="16.8" transform="translate(-21.55 87.83) rotate(-23)"/><ellipse class="flower2-cls-1" cx="160.3" cy="51.82" rx="45.26" ry="16.8" transform="translate(52.2 181.04) rotate(-68)"/><ellipse class="flower2-cls-1" cx="96.78" cy="52.06" rx="16.8" ry="45.26" transform="translate(-12.65 41.95) rotate(-23)"/><ellipse class="flower2-cls-2" cx="128" cy="45.26" rx="16.8" ry="45.26"/><ellipse class="flower2-cls-2" cx="69.19" cy="69.28" rx="16.8" ry="45.26" transform="translate(-28.72 69.22) rotate(-45)"/><ellipse class="flower2-cls-2" cx="45.26" cy="128.74" rx="45.26" ry="16.8"/><ellipse class="flower2-cls-2" cx="69.28" cy="187.55" rx="45.26" ry="16.8" transform="translate(-112.33 103.92) rotate(-45)"/><ellipse class="flower2-cls-2" cx="128" cy="209.22" rx="16.8" ry="45.26"/><ellipse class="flower2-cls-2" cx="186.81" cy="187.11" rx="16.8" ry="45.26" transform="translate(-77.59 186.9) rotate(-45)"/><ellipse class="flower2-cls-2" cx="210.74" cy="127.65" rx="45.26" ry="16.8"/><ellipse class="flower2-cls-2" cx="185.94" cy="69.62" rx="46.36" ry="16.8" transform="translate(5.23 151.87) rotate(-45)"/><polygon class="flower2-cls-3" points="185.14 163.37 185.14 163.37 185.14 163.37 185.14 163.37"/><path class="flower2-cls-4" d="M194.45,173c-.65-.5-1.28-1-1.9-1.55C193.17,172,193.8,172.46,194.45,173Z" transform="translate(0 0)"/><path class="flower2-cls-4" d="M199,176.08a46.59,46.59,0,0,1-4.43-3A46.59,46.59,0,0,0,199,176.08Z" transform="translate(0 0)"/><path class="flower2-cls-4" d="M206,179.5c-.63-.24-1.26-.5-1.87-.77C204.76,179,205.39,179.26,206,179.5Z" transform="translate(0 0)"/><path class="flower2-cls-4" d="M203.55,178.46c-.62-.29-1.23-.58-1.83-.89C202.32,177.88,202.93,178.17,203.55,178.46Z" transform="translate(0 0)"/><path class="flower2-cls-4" d="M192.34,171.23c-.63-.54-1.24-1.1-1.83-1.67C191.11,170.13,191.71,170.69,192.34,171.23Z" transform="translate(0 0)"/><path class="flower2-cls-4" d="M201.23,177.32c-.73-.38-1.44-.78-2.15-1.2C199.79,176.54,200.5,176.94,201.23,177.32Z" transform="translate(0 0)"/><path class="flower2-cls-4" d="M190.42,169.47a46.49,46.49,0,0,1-5.28-6.1A46.49,46.49,0,0,0,190.42,169.47Z" transform="translate(0 0)"/><path class="flower2-cls-5" d="M201.72,177.57l-.49-.25Z" transform="translate(0 0)"/><path class="flower2-cls-5" d="M204.15,178.73l-.6-.27Z" transform="translate(0 0)"/><path class="flower2-cls-5" d="M206.56,179.72l-.54-.22Z" transform="translate(0 0)"/><path class="flower2-cls-5" d="M199.08,176.12l-.06,0Z" transform="translate(0 0)"/><polygon class="flower2-cls-5" points="185.14 163.37 185.14 163.37 185.14 163.37 185.14 163.37"/><path class="flower2-cls-5" d="M192.55,171.41l-.21-.18Z" transform="translate(0 0)"/><path class="flower2-cls-5" d="M190.51,169.56l-.09-.09Z" transform="translate(0 0)"/><path class="flower2-cls-5" d="M194.59,173.07l-.14-.11Z" transform="translate(0 0)"/><path class="flower2-cls-4" d="M170,107.6c.3.62.58,1.24.86,1.87C170.56,108.84,170.28,108.22,170,107.6Z" transform="translate(0 0)"/><path class="flower2-cls-4" d="M174.19,121c.09.54.15,1.09.22,1.64C174.34,122.07,174.28,121.52,174.19,121Z" transform="translate(0 0)"/><path class="flower2-cls-4" d="M174.69,125.75c0,.81.06,1.62.06,2.44C174.75,127.37,174.73,126.56,174.69,125.75Z" transform="translate(0 0)"/><path class="flower2-cls-4" d="M173.77,118.65q.16.81.3,1.65Q173.94,119.46,173.77,118.65Z" transform="translate(0 0)"/><path class="flower2-cls-4" d="M172.58,114.09c.18.57.34,1.15.5,1.73C172.92,115.24,172.76,114.66,172.58,114.09Z" transform="translate(0 0)"/><path class="flower2-cls-4" d="M171,109.71c.26.61.5,1.22.74,1.83C171.45,110.93,171.21,110.32,171,109.71Z" transform="translate(0 0)"/><path class="flower2-cls-4" d="M171.82,111.88c.22.59.42,1.18.62,1.78C172.24,113.06,172,112.47,171.82,111.88Z" transform="translate(0 0)"/><path class="flower2-cls-4" d="M173.23,116.35c.15.55.27,1.12.4,1.68C173.5,117.47,173.38,116.9,173.23,116.35Z" transform="translate(0 0)"/><path class="flower2-cls-4" d="M174.5,123.35c.06.57.1,1.15.13,1.72C174.6,124.5,174.56,123.92,174.5,123.35Z" transform="translate(0 0)"/><path class="flower2-cls-5" d="M173.08,115.82c0,.18.11.35.15.53C173.19,116.17,173.13,116,173.08,115.82Z" transform="translate(0 0)"/><path class="flower2-cls-5" d="M173.63,118c0,.21.1.41.14.62C173.73,118.44,173.68,118.24,173.63,118Z" transform="translate(0 0)"/><path class="flower2-cls-5" d="M174.41,122.62l.09.73Z" transform="translate(0 0)"/><path class="flower2-cls-5" d="M174.07,120.3c0,.23.09.45.12.68C174.16,120.75,174.11,120.53,174.07,120.3Z" transform="translate(0 0)"/><path class="flower2-cls-5" d="M172.44,113.66c0,.15.1.29.14.43C172.54,114,172.48,113.81,172.44,113.66Z" transform="translate(0 0)"/><path class="flower2-cls-5" d="M169.89,107.43l.09.17Z" transform="translate(0 0)"/><path class="flower2-cls-5" d="M174.63,125.07l.06.68Z" transform="translate(0 0)"/><path class="flower2-cls-5" d="M171.69,111.54l.13.34Z" transform="translate(0 0)"/><path class="flower2-cls-5" d="M170.84,109.47a2.56,2.56,0,0,0,.11.24A2.56,2.56,0,0,1,170.84,109.47Z" transform="translate(0 0)"/><ellipse class="flower2-cls-4" cx="128" cy="128.05" rx="46.75" ry="46.8"/><polygon class="flower2-cls-3" points="160.56 94.52 160.56 94.52 160.56 94.52 160.56 94.52"/><path class="flower2-cls-4" d="M170,107.47c.3.61.58,1.24.86,1.86C170.56,108.71,170.28,108.08,170,107.47Z" transform="translate(0 0)"/><path class="flower2-cls-4" d="M121.72,174.37c-.58-.08-1.16-.17-1.73-.27C120.56,174.2,121.14,174.29,121.72,174.37Z" transform="translate(0 0)"/><path class="flower2-cls-4" d="M166.47,101.5c.42.61.83,1.24,1.23,1.88C167.3,102.74,166.89,102.11,166.47,101.5Z" transform="translate(0 0)"/><path class="flower2-cls-4" d="M167.73,103.43c.39.62.76,1.25,1.11,1.88C168.49,104.68,168.12,104.05,167.73,103.43Z" transform="translate(0 0)"/><path class="flower2-cls-4" d="M116.57,173.39a46.6,46.6,0,0,1-5-1.56A46.6,46.6,0,0,0,116.57,173.39Z" transform="translate(0 0)"/><path class="flower2-cls-4" d="M171.82,111.75c.22.58.42,1.18.62,1.78C172.24,112.93,172,112.33,171.82,111.75Z" transform="translate(0 0)"/><path class="flower2-cls-4" d="M119.1,174l-1.89-.41Z" transform="translate(0 0)"/><path class="flower2-cls-4" d="M171,109.58c.26.6.5,1.21.74,1.83C171.45,110.79,171.21,110.18,171,109.58Z" transform="translate(0 0)"/><path class="flower2-cls-4" d="M168.9,105.42c.35.62.67,1.25,1,1.88C169.57,106.66,169.25,106,168.9,105.42Z" transform="translate(0 0)"/><path class="flower2-cls-4" d="M160.56,94.52a47.4,47.4,0,0,1,5.9,7A47.92,47.92,0,0,0,160.56,94.52Z" transform="translate(0 0)"/><path class="flower2-cls-4" d="M174.69,125.62q.06,1.22.06,2.43Q174.75,126.83,174.69,125.62Z" transform="translate(0 0)"/><path class="flower2-cls-4" d="M161.06,161.11a48,48,0,0,1-6.92,5.71A48,48,0,0,0,161.06,161.11Z" transform="translate(0 0)"/><path class="flower2-cls-4" d="M137.42,173.85c-1.52.31-3.07.55-4.64.71C134.35,174.4,135.9,174.16,137.42,173.85Z" transform="translate(0 0)"/><path class="flower2-cls-4" d="M174.5,123.22c.06.57.1,1.14.13,1.72C174.6,124.36,174.56,123.79,174.5,123.22Z" transform="translate(0 0)"/><path class="flower2-cls-4" d="M172.58,114c.18.57.35,1.15.5,1.73C172.93,115.11,172.76,114.53,172.58,114Z" transform="translate(0 0)"/><path class="flower2-cls-4" d="M141.9,172.7c-1.46.45-3,.84-4.48,1.15C138.94,173.54,140.44,173.15,141.9,172.7Z" transform="translate(0 0)"/><path class="flower2-cls-4" d="M168,152.29q-1.17,1.94-2.52,3.73Q166.81,154.22,168,152.29Z" transform="translate(0 0)"/><path class="flower2-cls-6" d="M90.16,155.49h0a46.74,46.74,0,0,0,70.4-61h0S177.65,182.54,90.16,155.49Z" transform="translate(0 0)"/><path class="flower2-cls-4" d="M128,174.8c-.9,0-1.79,0-2.68-.08C126.21,174.77,127.1,174.8,128,174.8Z" transform="translate(0 0)"/><path class="flower2-cls-4" d="M124.48,174.66c-.61,0-1.22-.1-1.82-.17C123.26,174.56,123.87,174.61,124.48,174.66Z" transform="translate(0 0)"/><path class="flower2-cls-4" d="M173.77,118.51c.11.55.21,1.1.3,1.66C174,119.61,173.88,119.06,173.77,118.51Z" transform="translate(0 0)"/><path class="flower2-cls-4" d="M173.23,116.22c.15.55.27,1.12.4,1.68C173.5,117.34,173.38,116.77,173.23,116.22Z" transform="translate(0 0)"/><path class="flower2-cls-4" d="M174.19,120.85c.09.54.15,1.09.22,1.64C174.34,121.94,174.28,121.39,174.19,120.85Z" transform="translate(0 0)"/><path class="flower2-cls-4" d="M152.24,168a47.75,47.75,0,0,1-6,3.1A47.75,47.75,0,0,0,152.24,168Z" transform="translate(0 0)"/><path class="flower2-cls-5" d="M120,174.1l-.89-.15Z" transform="translate(0 0)"/><path class="flower2-cls-5" d="M122.66,174.49l-.94-.12Z" transform="translate(0 0)"/><path class="flower2-cls-5" d="M117.21,173.54l-.64-.15Z" transform="translate(0 0)"/><path class="flower2-cls-5" d="M125.32,174.72l-.84-.06Z" transform="translate(0 0)"/><path class="flower2-cls-5" d="M174.07,120.17c0,.22.09.45.12.68C174.16,120.62,174.11,120.39,174.07,120.17Z" transform="translate(0 0)"/><path class="flower2-cls-5" d="M173.63,117.9c.05.2.1.41.14.61C173.73,118.31,173.68,118.1,173.63,117.9Z" transform="translate(0 0)"/><path class="flower2-cls-5" d="M173.08,115.69c0,.18.11.35.15.53C173.19,116,173.13,115.87,173.08,115.69Z" transform="translate(0 0)"/><path class="flower2-cls-5" d="M172.44,113.53c0,.14.1.28.14.43C172.54,113.81,172.48,113.67,172.44,113.53Z" transform="translate(0 0)"/><path class="flower2-cls-5" d="M171.69,111.41c0,.11.09.22.13.34C171.78,111.63,171.73,111.52,171.69,111.41Z" transform="translate(0 0)"/><path class="flower2-cls-5" d="M174.63,124.94l.06.68Z" transform="translate(0 0)"/><polygon class="flower2-cls-5" points="160.56 94.52 160.56 94.52 160.56 94.52 160.56 94.52"/><path class="flower2-cls-5" d="M174.41,122.49l.09.73Z" transform="translate(0 0)"/><path class="flower2-cls-5" d="M166.46,101.49h0Z" transform="translate(0 0)"/><path class="flower2-cls-5" d="M168.84,105.31l.06.11Z" transform="translate(0 0)"/><path class="flower2-cls-5" d="M169.89,107.3l.09.17Z" transform="translate(0 0)"/><path class="flower2-cls-5" d="M170.84,109.33a1.89,1.89,0,0,0,.11.25A1.89,1.89,0,0,1,170.84,109.33Z" transform="translate(0 0)"/><path class="flower2-cls-5" d="M167.7,103.38l0,.05Z" transform="translate(0 0)"/><path class="flower2-cls-5" d="M174.69,125.62l-.06-.68c0-.58-.07-1.15-.13-1.72l-.09-.73c-.07-.55-.13-1.1-.22-1.64,0-.23-.08-.46-.12-.68-.09-.56-.19-1.11-.3-1.66,0-.2-.09-.41-.14-.61-.13-.56-.25-1.13-.4-1.68,0-.18-.1-.35-.15-.53-.15-.58-.32-1.16-.5-1.73,0-.15-.1-.29-.14-.43-.2-.6-.4-1.2-.62-1.78,0-.12-.09-.23-.13-.34-.24-.62-.48-1.23-.74-1.83a1.89,1.89,0,0,1-.11-.25c-.28-.62-.56-1.25-.86-1.86l-.09-.17c-.32-.63-.64-1.26-1-1.88l-.06-.11c-.35-.63-.72-1.26-1.11-1.88l0-.05c-.4-.64-.81-1.27-1.23-1.88h0a47.4,47.4,0,0,0-5.9-7h0a46.74,46.74,0,0,1-70.4,61h0a46.41,46.41,0,0,0,5.28,6.09l.09.09c.59.57,1.2,1.13,1.83,1.67l.21.19c.62.53,1.25,1.05,1.9,1.55l.14.1a44.79,44.79,0,0,0,4.43,3l.06,0c.71.42,1.42.82,2.15,1.2l.49.25c.6.31,1.21.6,1.82.89l.61.27c.61.27,1.24.53,1.87.78l.54.21a46.6,46.6,0,0,0,5,1.56l.64.15,1.89.41.89.15c.57.1,1.15.19,1.73.27l.94.12c.6.07,1.21.12,1.82.17l.84.06c.89.05,1.78.08,2.68.08a47.22,47.22,0,0,0,4.78-.24c1.57-.16,3.12-.4,4.64-.71s3-.7,4.48-1.15,2.9-1,4.3-1.57a47.75,47.75,0,0,0,6-3.1c.64-.39,1.28-.79,1.9-1.21a48,48,0,0,0,6.92-5.71,47.38,47.38,0,0,0,4.4-5.09q1.35-1.8,2.52-3.73a46.45,46.45,0,0,0,6.77-24.24Q174.75,126.83,174.69,125.62Z" transform="translate(0 0)"/><path class="flower2-cls-7" d="M91.05,147.42a2.43,2.43,0,0,1-2.25-1.53c-.13-.32-11.79-32.84,11.67-49.76,23.1-16.67,47.27-7.09,55.36.16a2.44,2.44,0,1,1-3.26,3.63c-6.84-6.14-28.75-14.62-49.24.16-20.31,14.66-10.12,43.72-10,44A2.47,2.47,0,0,1,92,147.25,2.56,2.56,0,0,1,91.05,147.42Z" transform="translate(0 0)"/><circle class="flower2-cls-7" cx="95.68" cy="151.97" r="2.08"/></svg>