<svg id="flower_7" data-name="Layer 1" xmlns="http://www.w3.org/2000/svg" viewBox="0 0 64 63.62"><defs><style>.flower7-cls-1{fill:#d0cfe1;}.flower7-cls-2{fill:#e6e5f3;}.flower7-cls-3{fill:none;}.flower7-cls-4{fill:#fba81f;}.flower7-cls-5{fill:#ee7923;}.flower7-cls-6{fill:#f7931e;}.flower7-cls-7{fill:#ffca1c;}</style></defs><title>svg7</title><ellipse class="flower7-cls-1" cx="13.23" cy="24.42" rx="4.2" ry="11.31" transform="translate(-14.37 27.54) rotate(-68)"/><ellipse class="flower7-cls-1" cx="13.14" cy="39.95" rx="11.31" ry="4.2" transform="translate(-14.57 8.31) rotate(-23)"/><ellipse class="flower7-cls-1" cx="24.19" cy="51.32" rx="11.31" ry="4.2" transform="translate(-32.45 54.52) rotate(-68)"/><ellipse class="flower7-cls-1" cx="40.33" cy="51.11" rx="4.2" ry="11.69" transform="translate(-16.76 19.82) rotate(-23)"/><ellipse class="flower7-cls-1" cx="51.28" cy="39.79" rx="4.2" ry="11.74" transform="translate(-4.82 72.43) rotate(-68)"/><ellipse class="flower7-cls-1" cx="51.27" cy="24.22" rx="11.69" ry="4.2" transform="translate(-5.39 21.96) rotate(-23)"/><ellipse class="flower7-cls-1" cx="40.07" cy="12.96" rx="11.31" ry="4.2" transform="translate(13.05 45.26) rotate(-68)"/><ellipse class="flower7-cls-1" cx="24.19" cy="13.02" rx="4.2" ry="11.31" transform="translate(-3.16 10.49) rotate(-23)"/><ellipse class="flower7-cls-2" cx="32" cy="11.31" rx="4.2" ry="11.31"/><ellipse class="flower7-cls-2" cx="17.3" cy="17.32" rx="4.2" ry="11.31" transform="translate(-7.18 17.3) rotate(-45)"/><ellipse class="flower7-cls-2" cx="11.31" cy="32.19" rx="11.31" ry="4.2"/><ellipse class="flower7-cls-2" cx="17.32" cy="46.89" rx="11.31" ry="4.2" transform="translate(-28.08 25.98) rotate(-45)"/><ellipse class="flower7-cls-2" cx="32" cy="52.31" rx="4.2" ry="11.31"/><ellipse class="flower7-cls-2" cx="46.7" cy="46.78" rx="4.2" ry="11.31" transform="translate(-19.4 46.72) rotate(-45)"/><ellipse class="flower7-cls-2" cx="52.69" cy="31.91" rx="11.31" ry="4.2"/><ellipse class="flower7-cls-2" cx="46.49" cy="17.41" rx="11.59" ry="4.2" transform="translate(1.31 37.97) rotate(-45)"/><polygon class="flower7-cls-3" points="46.28 40.84 46.28 40.84 46.28 40.84 46.28 40.84"/><path class="flower7-cls-4" d="M48.61,43.24a5.71,5.71,0,0,1-.47-.39A5.71,5.71,0,0,0,48.61,43.24Z"/><path class="flower7-cls-4" d="M49.75,44a11.84,11.84,0,0,1-1.1-.75A11.84,11.84,0,0,0,49.75,44Z"/><path class="flower7-cls-4" d="M51.51,44.88l-.47-.2Z"/><path class="flower7-cls-4" d="M50.89,44.61l-.46-.22Z"/><path class="flower7-cls-4" d="M48.08,42.81l-.45-.42Z"/><path class="flower7-cls-4" d="M50.31,44.33l-.54-.3Z"/><path class="flower7-cls-4" d="M47.6,42.37a12.08,12.08,0,0,1-1.32-1.53A12.08,12.08,0,0,0,47.6,42.37Z"/><path class="flower7-cls-5" d="M50.43,44.39l-.12-.06Z"/><path class="flower7-cls-5" d="M51,44.68l-.15-.07Z"/><path class="flower7-cls-5" d="M51.64,44.93l-.13,0Z"/><path class="flower7-cls-5" d="M49.77,44h0Z"/><polygon class="flower7-cls-5" points="46.28 40.84 46.28 40.84 46.28 40.84 46.28 40.84"/><path class="flower7-cls-5" d="M48.14,42.85l-.06,0Z"/><path class="flower7-cls-5" d="M47.63,42.39l0,0Z"/><path class="flower7-cls-5" d="M48.65,43.27l0,0Z"/><path class="flower7-cls-4" d="M42.49,26.9c.08.15.15.31.22.47C42.64,27.21,42.57,27.05,42.49,26.9Z"/><path class="flower7-cls-4" d="M43.55,30.25c0,.13,0,.27.05.4C43.59,30.52,43.57,30.38,43.55,30.25Z"/><path class="flower7-cls-4" d="M43.67,31.44c0,.2,0,.4,0,.61C43.69,31.84,43.68,31.64,43.67,31.44Z"/><path class="flower7-cls-4" d="M43.44,29.66c0,.14.05.28.08.41C43.49,29.94,43.47,29.8,43.44,29.66Z"/><path class="flower7-cls-4" d="M43.15,28.52l.12.44Z"/><path class="flower7-cls-4" d="M42.74,27.43l.18.46Z"/><path class="flower7-cls-4" d="M43,28c.06.15.11.3.16.45C43.06,28.27,43,28.12,43,28Z"/><path class="flower7-cls-4" d="M43.31,29.09c0,.14.07.28.1.42C43.38,29.37,43.34,29.23,43.31,29.09Z"/><path class="flower7-cls-4" d="M43.63,30.84l0,.43Z"/><path class="flower7-cls-5" d="M43.27,29s0,.08,0,.13S43.28,29,43.27,29Z"/><path class="flower7-cls-5" d="M43.41,29.51l0,.15Z"/><path class="flower7-cls-5" d="M43.6,30.65l0,.19Z"/><path class="flower7-cls-5" d="M43.52,30.07l0,.18Z"/><path class="flower7-cls-5" d="M43.11,28.42a.42.42,0,0,0,0,.1A.42.42,0,0,1,43.11,28.42Z"/><path class="flower7-cls-5" d="M42.47,26.86l0,0Z"/><path class="flower7-cls-5" d="M43.66,31.27c0,.05,0,.11,0,.17S43.66,31.32,43.66,31.27Z"/><path class="flower7-cls-5" d="M42.92,27.89,43,28Z"/><path class="flower7-cls-5" d="M42.71,27.37l0,.06Z"/><circle class="flower7-cls-4" cx="31.99" cy="32" r="11.7"/><polygon class="flower7-cls-3" points="40.14 23.63 40.14 23.63 40.14 23.63 40.14 23.63"/><path class="flower7-cls-4" d="M42.49,26.87c.08.15.15.31.22.46C42.64,27.18,42.57,27,42.49,26.87Z"/><path class="flower7-cls-4" d="M30.43,43.59,30,43.53Z"/><path class="flower7-cls-4" d="M41.62,25.37l.31.47Z"/><path class="flower7-cls-4" d="M41.93,25.86c.1.15.19.31.28.47C42.12,26.17,42,26,41.93,25.86Z"/><path class="flower7-cls-4" d="M29.14,43.35A12.76,12.76,0,0,1,27.9,43,12.76,12.76,0,0,0,29.14,43.35Z"/><path class="flower7-cls-4" d="M43,27.94c.06.14.11.29.16.44C43.06,28.23,43,28.08,43,27.94Z"/><path class="flower7-cls-4" d="M29.78,43.49l-.48-.11Z"/><path class="flower7-cls-4" d="M42.74,27.4l.18.45Z"/><path class="flower7-cls-4" d="M42.23,26.35l.24.48Z"/><path class="flower7-cls-4" d="M40.14,23.63a11.73,11.73,0,0,1,1.48,1.74A11.73,11.73,0,0,0,40.14,23.63Z"/><path class="flower7-cls-4" d="M43.67,31.41c0,.2,0,.4,0,.6C43.69,31.81,43.68,31.61,43.67,31.41Z"/><path class="flower7-cls-4" d="M40.26,40.28a10.81,10.81,0,0,1-1.73,1.42A10.81,10.81,0,0,0,40.26,40.28Z"/><path class="flower7-cls-4" d="M34.36,43.46a11.38,11.38,0,0,1-1.17.18A11.38,11.38,0,0,0,34.36,43.46Z"/><path class="flower7-cls-4" d="M43.63,30.81l0,.42Z"/><path class="flower7-cls-4" d="M43.15,28.49l.12.43Z"/><path class="flower7-cls-4" d="M35.48,43.17a8.77,8.77,0,0,1-1.12.29A8.77,8.77,0,0,0,35.48,43.17Z"/><path class="flower7-cls-4" d="M42,38.07c-.2.32-.41.64-.63.94C41.59,38.71,41.8,38.39,42,38.07Z"/><path class="flower7-cls-6" d="M22.54,38.87h0a11.68,11.68,0,0,0,17.6-15.24h0S44.41,45.64,22.54,38.87Z"/><path class="flower7-cls-4" d="M32,43.7l-.67,0Z"/><path class="flower7-cls-4" d="M31.12,43.66l-.46,0Z"/><path class="flower7-cls-4" d="M43.44,29.63c0,.14.05.27.08.41C43.49,29.9,43.47,29.77,43.44,29.63Z"/><path class="flower7-cls-4" d="M43.31,29.05c0,.14.07.28.1.42C43.38,29.33,43.34,29.19,43.31,29.05Z"/><path class="flower7-cls-4" d="M43.55,30.21c0,.14,0,.27.05.41C43.59,30.48,43.57,30.35,43.55,30.21Z"/><path class="flower7-cls-4" d="M38.06,42a11.91,11.91,0,0,1-1.51.77A11.91,11.91,0,0,0,38.06,42Z"/><path class="flower7-cls-5" d="M30,43.53l-.22,0Z"/><path class="flower7-cls-5" d="M30.66,43.62l-.23,0Z"/><path class="flower7-cls-5" d="M29.3,43.38l-.16,0Z"/><path class="flower7-cls-5" d="M31.33,43.68l-.21,0Z"/><path class="flower7-cls-5" d="M43.52,30l0,.17Z"/><path class="flower7-cls-5" d="M43.41,29.47l0,.16Z"/><path class="flower7-cls-5" d="M43.27,28.92s0,.09,0,.13S43.28,29,43.27,28.92Z"/><path class="flower7-cls-5" d="M43.11,28.38a.49.49,0,0,0,0,.11A.49.49,0,0,1,43.11,28.38Z"/><path class="flower7-cls-5" d="M42.92,27.85l0,.09Z"/><path class="flower7-cls-5" d="M43.66,31.23c0,.06,0,.12,0,.18S43.66,31.29,43.66,31.23Z"/><polygon class="flower7-cls-5" points="40.14 23.63 40.14 23.63 40.14 23.63 40.14 23.63"/><path class="flower7-cls-5" d="M43.6,30.62l0,.19Z"/><path class="flower7-cls-5" d="M41.62,25.37Z"/><path class="flower7-cls-5" d="M42.21,26.33l0,0Z"/><path class="flower7-cls-5" d="M42.47,26.83l0,0Z"/><path class="flower7-cls-5" d="M42.71,27.33l0,.07Z"/><path class="flower7-cls-5" d="M41.93,25.84v0Z"/><path class="flower7-cls-5" d="M43.67,31.41c0-.06,0-.12,0-.18l0-.42,0-.19c0-.14,0-.27-.05-.41l0-.17c0-.14-.05-.27-.08-.41l0-.16c0-.14-.07-.28-.1-.42s0-.08,0-.13l-.12-.43a.49.49,0,0,1,0-.11c0-.15-.1-.3-.16-.44l0-.09-.18-.45,0-.07c-.07-.15-.14-.31-.22-.46l0,0-.24-.48,0,0c-.09-.16-.18-.32-.28-.47v0l-.31-.47h0a11.73,11.73,0,0,0-1.48-1.74h0a11.68,11.68,0,0,1-17.6,15.24h0a12.08,12.08,0,0,0,1.32,1.53l0,0c.15.14.3.28.46.41l.05.05.48.39,0,0q.54.41,1.11.75h0l.53.3.12.06.46.22.15.07.47.19.14.06a12.76,12.76,0,0,0,1.24.39l.16,0,.48.11.22,0,.43.06.23,0,.46,0,.21,0,.67,0a11.71,11.71,0,0,0,1.19-.06,11.38,11.38,0,0,0,1.17-.18,8.77,8.77,0,0,0,1.12-.29,10.55,10.55,0,0,0,1.07-.39A11.91,11.91,0,0,0,38.06,42c.16-.1.32-.2.47-.31a10.81,10.81,0,0,0,1.73-1.42A12.16,12.16,0,0,0,41.37,39c.22-.3.43-.62.63-.94A11.64,11.64,0,0,0,43.69,32C43.69,31.81,43.68,31.61,43.67,31.41Z"/><path class="flower7-cls-7" d="M22.76,36.86a.6.6,0,0,1-.56-.39c0-.08-2.95-8.21,2.92-12.44a11.43,11.43,0,0,1,13.84,0,.6.6,0,0,1,0,.86.61.61,0,0,1-.86.05,10.3,10.3,0,0,0-12.31,0C20.75,28.68,23.3,36,23.33,36a.61.61,0,0,1-.34.79A.64.64,0,0,1,22.76,36.86Z"/><circle class="flower7-cls-7" cx="23.92" cy="37.99" r="0.52"/></svg>